HIERARCHY
ROOT Hips
{
	OFFSET -0.001795 -0.223333 0.028219
	CHANNELS 6 Xposition Yposition Zposition Zrotation Yrotation Xrotation 
	JOINT LeftUpLeg
	{
		OFFSET 0.069520 -0.091406 -0.006815
		CHANNELS 3 Zrotation Yrotation Xrotation
		JOINT LeftLeg
		{
			OFFSET 0.034277 -0.375199 -0.004496
			CHANNELS 3 Zrotation Yrotation Xrotation
			JOINT LeftFoot
			{
				OFFSET -0.013596 -0.397961 -0.043693
				CHANNELS 3 Zrotation Yrotation Xrotation
				JOINT LeftToe
				{
					OFFSET 0.026358 -0.055791 0.119288
					CHANNELS 3 Zrotation Yrotation Xrotation
					End Site
					{
						OFFSET 0.000000 0.000000 0.000000
					}
				}
			}
		}
	}
	JOINT RightUpLeg
	{
		OFFSET -0.067670 -0.090522 -0.004320
		CHANNELS 3 Zrotation Yrotation Xrotation
		JOINT RightLeg
		{
			OFFSET -0.038290 -0.382569 -0.008850
			CHANNELS 3 Zrotation Yrotation Xrotation
			JOINT RightFoot
			{
				OFFSET 0.015774 -0.398415 -0.042312
				CHANNELS 3 Zrotation Yrotation Xrotation
				JOINT RightToe
				{
					OFFSET -0.025372 -0.048144 0.123348
					CHANNELS 3 Zrotation Yrotation Xrotation
					End Site
					{
						OFFSET 0.000000 0.000000 0.000000
					}
				}
			}
		}
	}
	JOINT Spine
	{
		OFFSET -0.002533 0.108963 -0.026696
		CHANNELS 3 Zrotation Yrotation Xrotation
		JOINT Spine1
		{
			OFFSET 0.005487 0.135180 0.001092
			CHANNELS 3 Zrotation Yrotation Xrotation
			JOINT Spine2
			{
				OFFSET 0.001457 0.052922 0.025425
				CHANNELS 3 Zrotation Yrotation Xrotation
				JOINT Neck
				{
					OFFSET -0.002778 0.213870 -0.042857
					CHANNELS 3 Zrotation Yrotation Xrotation
					JOINT Head
					{
						OFFSET 0.005152 0.064970 0.051349
						CHANNELS 3 Zrotation Yrotation Xrotation
						End Site
						{
							OFFSET 0.000000 0.000000 0.000000
						}
					}
				}
				JOINT LeftShoulder
				{
					OFFSET 0.078845 0.121749 -0.034090
					CHANNELS 3 Zrotation Yrotation Xrotation
					JOINT LeftArm
					{
						OFFSET 0.090977 0.030469 -0.008868
						CHANNELS 3 Zrotation Yrotation Xrotation
						JOINT LeftForeArm
						{
							OFFSET 0.259612 -0.012772 -0.027456
							CHANNELS 3 Zrotation Yrotation Xrotation
							JOINT LeftHand
							{
								OFFSET 0.249234 0.008986 -0.001171
								CHANNELS 3 Zrotation Yrotation Xrotation
								End Site
								{
									OFFSET 0.000000 0.000000 0.000000
								}
							}
						}
					}
				}
				JOINT RightShoulder
				{
					OFFSET -0.081759 0.118833 -0.038615
					CHANNELS 3 Zrotation Yrotation Xrotation
					JOINT RightArm
					{
						OFFSET -0.096012 0.032551 -0.009143
						CHANNELS 3 Zrotation Yrotation Xrotation
						JOINT RightForeArm
						{
							OFFSET -0.253742 -0.013329 -0.021401
							CHANNELS 3 Zrotation Yrotation Xrotation
							JOINT RightHand
							{
								OFFSET -0.255298 0.007772 -0.005559
								CHANNELS 3 Zrotation Yrotation Xrotation
								End Site
								{
									OFFSET 0.000000 0.000000 0.000000
								}
							}
						}
					}
				}
			}
		}
	}
}
MOTION
Frames: 11
Frame Time: 0.050000
0.239168 0.716881 0.374749 1.939007 -21.714811 14.433520 19.895987 13.790398 -57.722309 -5.606275 6.175816 56.872094 14.185039 26.844751 1.175593 0.000000 0.000000 0.000000 -44.998438 -3.668103 -46.861763 7.883629 -0.678436 30.515601 8.120458 4.430823 22.512966 0.000000 0.000000 0.000000 7.467608 1.392140 77.660230 3.230687 0.069465 -33.946003 1.121022 0.470505 22.365733 -11.304522 5.319562 -56.389602 0.000000 0.000000 0.000000 -13.908991 -31.629841 15.888484 -53.575542 -63.715385 25.536532 17.908444 -36.177870 -3.745705 0.000000 0.000000 0.000000 -4.165258 37.717416 12.064405 28.905220 44.992581 5.968136 -16.868760 16.634832 -1.651655 0.000000 0.000000 0.000000 
0.212692 0.723817 0.371238 2.689817 -21.926165 13.148275 20.102896 13.224146 -55.475179 -3.702803 4.876696 55.534694 12.305924 23.624106 0.679954 0.000000 0.000000 0.000000 -43.658018 -3.672928 -48.669620 8.339104 -0.737523 35.028266 8.115758 5.322218 21.063910 0.000000 0.000000 0.000000 8.331814 0.771708 77.408755 3.798138 0.009388 -34.438167 1.076138 0.663469 23.757891 -10.409436 5.183435 -56.251969 0.000000 0.000000 0.000000 -14.545041 -31.596777 15.966499 -55.375540 -62.821587 25.885959 15.904033 -34.127060 -2.956999 0.000000 0.000000 0.000000 -4.196722 37.583524 11.877140 29.589962 46.855192 6.625658 -15.105965 16.702500 -1.439605 0.000000 0.000000 0.000000 
0.180816 0.735164 0.368163 3.559213 -23.676380 12.828828 21.890405 13.711197 -51.663189 -4.221747 5.296769 51.762234 11.777664 22.531540 1.533583 0.000000 0.000000 0.000000 -41.574274 -2.835198 -50.702967 7.631038 -0.196583 37.002825 7.903741 6.534763 18.393688 0.000000 0.000000 0.000000 8.720955 1.305945 76.890747 3.233936 0.021611 -33.761892 1.380422 -0.387458 22.941475 -12.445798 5.631069 -55.766600 0.000000 0.000000 0.000000 -18.427117 -29.950740 16.591959 -55.348538 -60.517289 24.276761 13.327356 -34.343523 -2.143385 0.000000 0.000000 0.000000 -4.385813 37.550855 11.734817 31.110553 46.728749 6.989001 -14.864644 19.543665 -1.707992 0.000000 0.000000 0.000000 
0.147906 0.744445 0.365789 5.185454 -21.938061 11.467797 20.499482 11.516087 -49.786634 -1.047057 2.854368 49.201747 9.283458 18.053474 1.209612 0.000000 0.000000 0.000000 -40.247470 -3.023265 -49.912561 7.139235 0.086217 39.926390 6.897733 7.032679 14.609993 0.000000 0.000000 0.000000 11.140819 -1.532714 74.688177 3.499440 -0.114010 -31.679537 -0.425549 -1.578897 22.538889 -10.783689 5.263567 -54.941281 0.000000 0.000000 0.000000 -18.889012 -30.705802 17.464635 -57.271474 -58.807609 24.357009 16.412493 -33.134307 -2.929810 0.000000 0.000000 0.000000 -3.671592 37.436789 11.784733 31.278304 46.543814 6.838607 -13.301453 21.162616 -1.635065 0.000000 0.000000 0.000000 
0.117138 0.751969 0.363025 6.270462 -23.882516 9.562560 20.977138 11.019453 -45.260374 -0.848939 3.111944 46.958799 6.591839 12.761458 -1.872945 0.000000 0.000000 0.000000 -38.322057 -1.753698 -48.836008 6.460364 0.771960 39.185336 5.691062 9.412935 7.904280 0.000000 0.000000 0.000000 12.851310 -1.788600 75.170633 0.227693 0.435422 -33.696961 -0.439217 -3.761617 25.532777 -10.265256 5.116182 -53.786454 0.000000 0.000000 0.000000 -19.738353 -30.411234 18.126391 -54.997669 -57.888553 22.178328 15.787324 -32.463969 -2.684649 0.000000 0.000000 0.000000 -3.299758 37.617549 11.576888 29.849954 46.006115 5.734117 -12.817664 20.555773 -1.557590 0.000000 0.000000 0.000000 
0.088603 0.756140 0.359535 7.424730 -24.506992 8.937075 17.710253 9.183601 -44.435341 2.270632 1.587662 46.915048 6.337501 12.245052 -2.142521 0.000000 0.000000 0.000000 -36.293179 -1.032198 -49.227977 4.837685 1.802543 40.437636 4.036446 10.615602 2.032068 0.000000 0.000000 0.000000 13.424599 -1.829035 74.606621 0.846495 0.239022 -31.484975 -1.165184 -4.358401 23.722780 -10.129864 5.071552 -52.424286 0.000000 0.000000 0.000000 -16.857908 -28.379160 16.138508 -58.725063 -57.905185 24.757810 15.840534 -31.346838 -2.601040 0.000000 0.000000 0.000000 -3.184666 38.073126 11.735606 27.539125 46.452271 5.081379 -13.551231 18.488067 -1.485735 0.000000 0.000000 0.000000 
0.059930 0.760791 0.356238 8.025694 -27.054999 9.631638 17.673093 10.180049 -45.345816 0.484187 3.425347 49.677522 11.738109 21.516434 6.164863 0.000000 0.000000 0.000000 -33.151342 0.439213 -52.376887 2.380828 3.514252 42.479728 3.119726 11.972875 -1.315331 0.000000 0.000000 0.000000 13.184292 -0.531708 73.060272 0.848009 0.164774 -29.675723 -1.202366 -3.933170 23.075453 -11.850870 5.498547 -53.014244 0.000000 0.000000 0.000000 -16.344442 -26.003465 14.824739 -59.340730 -56.136982 23.902563 13.258363 -33.541241 -1.937004 0.000000 0.000000 0.000000 -3.800776 37.636322 11.457571 24.042030 46.373850 3.827191 -11.945206 19.194595 -1.325704 0.000000 0.000000 0.000000 
0.030447 0.764085 0.354466 8.822155 -28.134121 9.706630 15.408473 10.016658 -48.018576 -5.208533 7.118459 49.412103 20.886349 35.823543 6.667478 0.000000 0.000000 0.000000 -31.244804 1.276074 -54.272746 1.831927 4.340212 45.172899 2.085940 12.447603 -4.346192 0.000000 0.000000 0.000000 13.323915 -0.046682 74.440501 0.926878 0.183945 -30.539097 -1.465980 -3.934106 22.443571 -12.627414 5.685465 -53.457871 0.000000 0.000000 0.000000 -15.484518 -25.182059 14.104863 -58.586349 -53.334576 21.630665 14.511834 -35.633824 -2.342960 0.000000 0.000000 0.000000 -4.892425 37.870437 11.318932 21.951744 45.931002 3.113668 -10.168790 19.408669 -1.069826 0.000000 0.000000 0.000000 
0.002290 0.764143 0.355697 9.818830 -28.942273 9.571764 13.845196 10.275357 -50.881229 -17.324913 12.597076 41.068169 30.798453 49.154615 7.200052 0.000000 0.000000 0.000000 -28.588317 2.393501 -55.823417 -0.438921 6.353253 48.303403 0.665262 12.907230 -8.381254 0.000000 0.000000 0.000000 13.535402 0.263550 74.780652 0.152531 0.281228 -29.043941 -2.065637 -4.055163 21.864509 -12.168551 5.570190 -52.863069 0.000000 0.000000 0.000000 -15.369802 -24.995686 14.013331 -56.193975 -50.967556 18.900245 15.933965 -36.658912 -2.821487 0.000000 0.000000 0.000000 -6.005938 38.313143 11.195973 19.226401 45.007870 2.125064 -9.681806 19.201125 -0.991711 0.000000 0.000000 0.000000 
-0.024394 0.763575 0.361386 10.047666 -29.360373 9.466642 9.906131 8.799960 -53.400839 -18.346710 11.979916 37.370943 22.186783 41.124885 -2.057937 0.000000 0.000000 0.000000 -25.272658 3.554657 -54.946981 -3.142398 8.467223 48.986107 -2.336286 12.962936 -16.378517 0.000000 0.000000 0.000000 12.963178 1.073353 76.023150 -0.176278 0.354760 -29.366587 -2.115637 -3.702150 23.073959 -12.956872 5.806593 -53.112625 0.000000 0.000000 0.000000 -14.807279 -26.305008 14.395703 -55.065246 -49.884283 17.621046 19.256404 -37.177911 -3.950590 0.000000 0.000000 0.000000 -8.387454 39.414675 10.839058 19.093820 45.874890 2.162677 -9.098791 17.086130 -0.772810 0.000000 0.000000 0.000000 
-0.048712 0.760856 0.371670 8.592478 -29.970946 10.613094 6.787927 7.919639 -56.364059 -12.609140 9.350175 40.622631 16.248385 31.299384 -3.902471 0.000000 0.000000 0.000000 -22.249563 4.776229 -55.293566 -3.132140 9.289576 51.121523 -4.305495 11.872276 -21.482022 0.000000 0.000000 0.000000 11.373337 2.723595 77.488922 -1.061043 0.529834 -30.416811 -0.791158 -2.919285 23.495093 -12.208696 5.620183 -53.332009 0.000000 0.000000 0.000000 -11.941251 -25.862048 13.136587 -57.902196 -49.406677 18.747973 17.544333 -38.092247 -3.488436 0.000000 0.000000 0.000000 -8.858298 40.264163 10.982968 19.923096 45.767021 2.562373 -10.243428 18.656403 -1.025949 0.000000 0.000000 0.000000 
